<?xml version="1.0"?>
<svg xmlns="http://www.w3.org/2000/svg" xmlns:xlink="http://www.w3.org/1999/xlink" xmlns:svgjs="http://svgjs.com/svgjs" version="1.1" width="512" height="512" x="0" y="0" viewBox="0 0 512 512" style="enable-background:new 0 0 512 512" xml:space="preserve" class=""><circle r="256" cx="256" cy="256" fill="#ffffff" shape="circle" transform="matrix(0.56,0,0,0.56,112.63999999999999,112.63999999999999)"/><g transform="matrix(0.9299999999999999,0,0,0.9299999999999999,17.920000000000016,32.920000000000016)"><script/><script/>
<g xmlns="http://www.w3.org/2000/svg">
	<path style="" d="M441.443,133.2c-17.999-58.2-65.4-105.601-123.6-123.6c-20.4-6.301-41.4-9.6-61.8-9.6   c-41.7,0-81.899,12.9-115.499,38.101C90.742,74.7,61.043,133.2,61.043,195c0,42.599,13.5,83.101,39,117.001l156,199.999   l156-199.999C450.142,261,460.943,195.901,441.443,133.2z M256.043,300c-57.9,0-105-47.1-105-105s47.1-105,105-105   s105,47.1,105,105S313.943,300,256.043,300z" fill="#4353c6" data-original="#ff3636" class=""/>
</g>
<path xmlns="http://www.w3.org/2000/svg" style="" d="M412.043,312.001L256.043,512V300c57.9,0,105-47.1,105-105s-47.1-105-105-105V0  c20.4,0,41.4,3.3,61.8,9.6c58.2,17.999,105.601,65.4,123.6,123.6C460.943,195.901,450.142,261,412.043,312.001z" fill="#3957b0" data-original="#f40000" class=""/>
<g xmlns="http://www.w3.org/2000/svg">
</g>
<g xmlns="http://www.w3.org/2000/svg">
</g>
<g xmlns="http://www.w3.org/2000/svg">
</g>
<g xmlns="http://www.w3.org/2000/svg">
</g>
<g xmlns="http://www.w3.org/2000/svg">
</g>
<g xmlns="http://www.w3.org/2000/svg">
</g>
<g xmlns="http://www.w3.org/2000/svg">
</g>
<g xmlns="http://www.w3.org/2000/svg">
</g>
<g xmlns="http://www.w3.org/2000/svg">
</g>
<g xmlns="http://www.w3.org/2000/svg">
</g>
<g xmlns="http://www.w3.org/2000/svg">
</g>
<g xmlns="http://www.w3.org/2000/svg">
</g>
<g xmlns="http://www.w3.org/2000/svg">
</g>
<g xmlns="http://www.w3.org/2000/svg">
</g>
<g xmlns="http://www.w3.org/2000/svg">
</g>
</g></svg>
