<?xml version="1.0"?>
<svg xmlns="http://www.w3.org/2000/svg" xmlns:xlink="http://www.w3.org/1999/xlink" xmlns:svgjs="http://svgjs.com/svgjs" version="1.1" width="512" height="512" x="0" y="0" viewBox="0 0 512 512" style="enable-background:new 0 0 512 512" xml:space="preserve" class=""><g><script/><script/>
<circle xmlns="http://www.w3.org/2000/svg" style="" cx="255.997" cy="256" r="255.997" fill="#182c90" data-original="#41b4e6" class=""/>
<path xmlns="http://www.w3.org/2000/svg" style="" d="M512,256.003c0-6.238-0.235-12.419-0.673-18.546L405.228,131.36L106.772,248.759l114.191,114.192  l1.498,5.392l1.939-1.955l0.008,0.008l-1.947,1.947L348.778,494.66C444.298,457.5,512,364.663,512,256.003z" fill="#071268" data-original="#0091c8" class=""/>
<polygon xmlns="http://www.w3.org/2000/svg" style="" points="231.138,293.3 346.829,380.647 405.228,131.36 106.771,248.759 197.588,278.84   363.331,167.664 " fill="#ffffff" data-original="#ffffff" class=""/>
<polygon xmlns="http://www.w3.org/2000/svg" style="" points="197.588,278.84 222.461,368.344 231.138,293.3 363.331,167.664 " fill="#d2d2d7" data-original="#d2d2d7" class=""/>
<polygon xmlns="http://www.w3.org/2000/svg" style="" points="268.738,321.688 222.461,368.344 231.138,293.3 " fill="#b9b9be" data-original="#b9b9be"/>
<g xmlns="http://www.w3.org/2000/svg">
</g>
<g xmlns="http://www.w3.org/2000/svg">
</g>
<g xmlns="http://www.w3.org/2000/svg">
</g>
<g xmlns="http://www.w3.org/2000/svg">
</g>
<g xmlns="http://www.w3.org/2000/svg">
</g>
<g xmlns="http://www.w3.org/2000/svg">
</g>
<g xmlns="http://www.w3.org/2000/svg">
</g>
<g xmlns="http://www.w3.org/2000/svg">
</g>
<g xmlns="http://www.w3.org/2000/svg">
</g>
<g xmlns="http://www.w3.org/2000/svg">
</g>
<g xmlns="http://www.w3.org/2000/svg">
</g>
<g xmlns="http://www.w3.org/2000/svg">
</g>
<g xmlns="http://www.w3.org/2000/svg">
</g>
<g xmlns="http://www.w3.org/2000/svg">
</g>
<g xmlns="http://www.w3.org/2000/svg">
</g>
</g></svg>
