<svg xmlns="http://www.w3.org/2000/svg" preserveAspectRatio="none" viewBox="0 0 81 58">
  <defs>
    <style>
      .cls-1 {
        fill: #fff;
        stroke: #4f9ffb;
        stroke-width: 2px;
      }

      .cls-2 {
        fill: #4f9ffb;
        stroke: #1e85fb;
      }

      .cls-3 {
        stroke: none;
      }

      .cls-4 {
        fill: none;
      }
    </style>
  </defs>
  <g id="Group_71" data-name="Group 71" transform="translate(-413 -2110)">
    <g id="Rectangle_40" data-name="Rectangle 40" class="cls-1" transform="translate(413 2110)">
      <path class="cls-3" d="M0,0H81a0,0,0,0,1,0,0V17.5A40.5,40.5,0,0,1,40.5,58h0A40.5,40.5,0,0,1,0,17.5V0A0,0,0,0,1,0,0Z"/>
      <path class="cls-4" d="M1.669,1H79.331A.669.669,0,0,1,80,1.669V17.5A39.5,39.5,0,0,1,40.5,57h0A39.5,39.5,0,0,1,1,17.5V1.669A.669.669,0,0,1,1.669,1Z"/>
    </g>
    <g id="Group_70" data-name="Group 70" transform="translate(158 2)">
      <path id="Path_26" data-name="Path 26" class="cls-2" d="M1073.72,2110h-20.229l38.069,53.578" transform="translate(-796)"/>
      <path id="Path_27" data-name="Path 27" class="cls-2" d="M1070,2110h-16.509l22.069,32.005" transform="translate(-780.021)"/>
      <path id="Path_28" data-name="Path 28" class="cls-2" d="M1071.332,2110h20.229l-38.069,53.578" transform="translate(-758.069)"/>
      <path id="Path_29" data-name="Path 29" class="cls-2" d="M1059.051,2110h16.509l-22.069,32.005" transform="translate(-758.049)"/>
    </g>
  </g>
</svg>
