<svg xmlns="http://www.w3.org/2000/svg" xmlns:xlink="http://www.w3.org/1999/xlink" width="1199.541" height="1093.481" viewBox="0 0 1199.541 1093.481">
  <defs>
    <filter id="Path_1" x="0" y="0" width="1199.541" height="1093.481" filterUnits="userSpaceOnUse">
      <feOffset dx="10" dy="30" input="SourceAlpha"/>
      <feGaussianBlur stdDeviation="15" result="blur"/>
      <feFlood flood-opacity="0.278"/>
      <feComposite operator="in" in2="blur"/>
      <feComposite in="SourceGraphic"/>
    </filter>
  </defs>
  <g transform="matrix(1, 0, 0, 1, 0, 0)" filter="url(#Path_1)">
    <g id="Path_1-2" data-name="Path 1" transform="translate(71.29 16.56)" fill="#fff">
      <path d="M156.178-1.559h777.77c28.773,0,52.1,23.66,52.1,52.847l87.208,897.787c0,29.187-23.325,52.847-52.1,52.847H15.811c-28.773,0-52.1-23.66-52.1-52.847L104.08,51.288C104.08,22.1,127.4-1.559,156.178-1.559Z" stroke="none"/>
      <path d="M 156.1778564453125 -0.55914306640625 C 149.281005859375 -0.55914306640625 142.5906982421875 0.81085205078125 136.2931518554688 3.51287841796875 C 130.2088623046875 6.123291015625 124.744140625 9.8607177734375 120.0508422851563 14.62158203125 C 115.356689453125 19.38330078125 111.671142578125 24.92816162109375 109.0966796875 31.1024169921875 C 106.43115234375 37.4951171875 105.07958984375 44.28656005859375 105.07958984375 51.28802490234375 L 105.07958984375 51.36572265625 L 105.0675659179688 51.44244384765625 L -35.287353515625 949.1521606445313 C -35.2774658203125 956.1265258789063 -33.9261474609375 962.8912353515625 -31.270263671875 969.2604370117188 C -28.6959228515625 975.4346923828125 -25.01025390625 980.9795532226563 -20.3160400390625 985.7412719726563 C -15.6226806640625 990.5020141601563 -10.157958984375 994.2395629882813 -4.07373046875 996.849853515625 C 2.223876953125 999.5518798828125 8.9141845703125 1000.921875 15.81097412109375 1000.921875 L 1021.155395507813 1000.921875 C 1028.05224609375 1000.921875 1034.742553710938 999.5518798828125 1041.040161132813 996.849853515625 C 1047.124389648438 994.2395629882813 1052.589111328125 990.5020141601563 1057.282470703125 985.7412719726563 C 1061.976684570313 980.9795532226563 1065.662231445313 975.4346923828125 1068.236694335938 969.2604370117188 C 1070.896240234375 962.88232421875 1072.247680664063 956.1074829101563 1072.253784179688 949.1226806640625 L 985.0511474609375 51.38470458984375 L 985.0464477539063 51.33642578125 L 985.0464477539063 51.28802490234375 C 985.0464477539063 44.28656005859375 983.69482421875 37.4951171875 981.029296875 31.1024169921875 C 978.454833984375 24.92816162109375 974.769287109375 19.38330078125 970.0750122070313 14.62158203125 C 965.3817138671875 9.8607177734375 959.9169921875 6.123291015625 953.8327026367188 3.51287841796875 C 947.53515625 0.81085205078125 940.8448486328125 -0.55914306640625 933.947998046875 -0.55914306640625 L 156.1778564453125 -0.55914306640625 M 156.1778564453125 -1.55914306640625 L 933.947998046875 -1.55914306640625 C 962.7211303710938 -1.55914306640625 986.0464477539063 22.1014404296875 986.0464477539063 51.28802490234375 L 1073.25390625 949.0748291015625 C 1073.25390625 978.2615966796875 1049.928588867188 1001.921875 1021.155395507813 1001.921875 L 15.81097412109375 1001.921875 C -12.962158203125 1001.921875 -36.2874755859375 978.2615966796875 -36.2874755859375 949.0748291015625 L 104.07958984375 51.28802490234375 C 104.07958984375 22.1014404296875 127.4047241210938 -1.55914306640625 156.1778564453125 -1.55914306640625 Z" stroke="none" fill="rgba(112,112,112,0.28)"/>
    </g>
  </g>
</svg>
