<svg xmlns="http://www.w3.org/2000/svg" width="1604.507" height="872.099" viewBox="0 0 1604.507 872.099">
  <g id="Path_3" data-name="Path 3" fill="#96c6d8">
    <path d="M 1601.644653320313 871.5987548828125 L 2.862662076950073 871.5987548828125 C 1.55986213684082 871.5987548828125 0.500062108039856 870.6499633789063 0.500062108039856 869.4837646484375 L 0.500062108039856 2.614946842193604 C 0.500062108039856 1.448746919631958 1.55986213684082 0.4999469220638275 2.862662076950073 0.4999469220638275 L 1601.644653320313 0.4999469220638275 C 1602.76171875 0.4999469220638275 1603.700073242188 1.197535753250122 1603.944946289063 2.131558656692505 C 1602.054931640625 2.193892002105713 1595.382934570313 2.460870981216431 1585.112426757813 3.377746820449829 C 1573.865234375 4.381947040557861 1555.8720703125 6.393346786499023 1534.0244140625 10.27354717254639 C 1509.46923828125 14.63454723358154 1485.148315429688 20.41934776306152 1461.737060546875 27.46714782714844 C 1432.470825195313 36.27734756469727 1404.551879882813 47.0975456237793 1378.755249023438 59.62714767456055 C 1313.076293945313 91.52814483642578 1260.59130859375 134.5659484863281 1222.7578125 187.5455474853516 C 1217.363037109375 195.1001434326172 1212.196044921875 202.9647521972656 1207.400512695313 210.9209442138672 C 1202.47509765625 219.0923461914063 1197.802490234375 227.5905456542969 1193.512451171875 236.1797485351563 C 1189.111206054688 244.991943359375 1184.988403320313 254.1481475830078 1181.258911132813 263.3943481445313 C 1177.436279296875 272.8711547851563 1173.918701171875 282.7097473144531 1170.804077148438 292.6365356445313 C 1167.614501953125 302.8021545410156 1164.757446289063 313.3473510742188 1162.312255859375 323.9789428710938 C 1159.810424804688 334.8571472167969 1157.669067382813 346.1329345703125 1155.947875976563 357.4931335449219 C 1154.188110351563 369.1079406738281 1152.817626953125 381.1389465332031 1151.874633789063 393.251953125 C 1150.911254882813 405.6271362304688 1150.366821289063 418.4375610351563 1150.256713867188 431.3271484375 C 1150.146484375 444.2167358398438 1150.478881835938 457.0363464355469 1151.244506835938 469.4299621582031 C 1151.993896484375 481.560546875 1153.179077148438 493.6183471679688 1154.767456054688 505.2681579589844 C 1156.320922851563 516.6625366210938 1158.302612304688 527.9813232421875 1160.65771484375 538.9103393554688 C 1162.95947265625 549.5913696289063 1165.681274414063 560.1945190429688 1168.747436523438 570.4253540039063 C 1171.74169921875 580.4159545898438 1175.146850585938 590.3265380859375 1178.868408203125 599.8819580078125 C 1182.49951171875 609.2047729492188 1186.531494140625 618.4457397460938 1190.852416992188 627.3485717773438 C 1195.064208984375 636.0263671875 1199.66650390625 644.6209716796875 1204.531005859375 652.8941650390625 C 1209.267700195313 660.9495239257813 1214.38330078125 668.9209594726563 1219.735717773438 676.587158203125 C 1257.271118164063 730.349365234375 1309.868041992188 774.4791259765625 1376.0654296875 807.7505493164063 C 1402.065673828125 820.818359375 1430.252319335938 832.2215576171875 1459.842407226563 841.6435546875 C 1483.512817382813 849.1807250976563 1508.1298828125 855.47412109375 1533.009521484375 860.34912109375 C 1555.1455078125 864.6865234375 1573.396606445313 867.0747680664063 1584.809448242188 868.3145751953125 C 1595.270141601563 869.45068359375 1602.057739257813 869.8563232421875 1603.94775390625 869.9564819335938 C 1603.707275390625 870.8959350585938 1602.765991210938 871.5987548828125 1601.644653320313 871.5987548828125 Z" stroke="none"/>
    <path d="M 2.8626708984375 0.99993896484375 C 1.835693359375 0.99993896484375 1.0001220703125 1.724365234375 1.0001220703125 2.61492919921875 L 1.0001220703125 869.4837646484375 C 1.0001220703125 870.3743286132813 1.835693359375 871.0987548828125 2.8626708984375 871.0987548828125 L 1601.644653320313 871.0987548828125 C 1602.272705078125 871.0987548828125 1602.8291015625 870.8278198242188 1603.166748046875 870.4136962890625 C 1600.560913085938 870.2622680664063 1594.12890625 869.8297729492188 1584.755493164063 868.8115234375 C 1573.332885742188 867.5707397460938 1555.066650390625 865.1807250976563 1532.913208007813 860.8397216796875 C 1508.015014648438 855.9611206054688 1483.379516601563 849.6629638671875 1459.69091796875 842.1201171875 C 1430.07568359375 832.6901245117188 1401.864501953125 821.2767333984375 1375.841064453125 808.1971435546875 C 1309.568481445313 774.8881225585938 1256.909301757813 730.7045288085938 1219.32568359375 676.8733520507813 C 1213.9658203125 669.196533203125 1208.84326171875 661.214111328125 1204.10009765625 653.1475830078125 C 1199.228637695313 644.8629150390625 1194.620239257813 636.2565307617188 1190.402587890625 627.5669555664063 C 1186.075927734375 618.6521606445313 1182.038330078125 609.3985595703125 1178.402465820313 600.0633544921875 C 1174.676025390625 590.4955444335938 1171.266479492188 580.5721435546875 1168.268432617188 570.5689697265625 C 1165.198486328125 560.3255615234375 1162.473388671875 549.7095336914063 1160.168823242188 539.0155029296875 C 1157.81103515625 528.0743408203125 1155.827026367188 516.7427368164063 1154.271850585938 505.3355407714844 C 1152.68212890625 493.6737365722656 1151.49560546875 481.603759765625 1150.745483398438 469.4607543945313 C 1149.97900390625 457.0555419921875 1149.646240234375 444.2241516113281 1149.756591796875 431.32275390625 C 1149.867065429688 418.4217529296875 1150.411865234375 405.5999450683594 1151.376098632813 393.213134765625 C 1152.320068359375 381.088134765625 1153.69189453125 369.0451354980469 1155.453491210938 357.4183349609375 C 1157.176635742188 346.0455322265625 1159.3203125 334.75732421875 1161.825073242188 323.8667602539063 C 1164.273071289063 313.2225341796875 1167.133422851563 302.6649169921875 1170.326904296875 292.4869384765625 C 1173.445434570313 282.5475463867188 1176.967651367188 272.6963500976563 1180.795288085938 263.2071533203125 C 1184.529663085938 253.948974609375 1188.658081054688 244.7803344726563 1193.065307617188 235.9563598632813 C 1197.361083984375 227.3553466796875 1202.0400390625 218.8453369140625 1206.972290039063 210.6629638671875 C 1211.774658203125 202.695556640625 1216.94873046875 194.8199462890625 1222.350830078125 187.255126953125 C 1260.233276367188 134.2067260742188 1312.781860351563 91.11517333984375 1378.536865234375 59.17755126953125 C 1404.357299804688 46.6363525390625 1432.301513671875 35.80633544921875 1461.592895507813 26.98834228515625 C 1485.022705078125 19.9349365234375 1509.362670898438 14.145751953125 1533.93701171875 9.7811279296875 C 1555.80224609375 5.89794921875 1573.810913085938 3.884765625 1585.068115234375 2.8797607421875 C 1594.233764648438 2.0615234375 1600.541381835938 1.760009765625 1603.145751953125 1.65985107421875 C 1602.806396484375 1.2598876953125 1602.259887695313 0.99993896484375 1601.644653320313 0.99993896484375 L 2.8626708984375 0.99993896484375 M 2.8626708984375 -6.103515625e-05 L 1601.644653320313 -6.103515625e-05 C 1603.225463867188 -6.103515625e-05 1604.507202148438 1.1707763671875 1604.507202148438 2.61492919921875 C 1604.507202148438 2.61492919921875 1154.334838867188 12.9415283203125 1150.756591796875 431.3313598632813 C 1147.17822265625 849.7211303710938 1604.507202148438 869.4837646484375 1604.507202148438 869.4837646484375 C 1604.507202148438 870.927734375 1603.225463867188 872.0987548828125 1601.644653320313 872.0987548828125 L 2.8626708984375 872.0987548828125 C 1.2816162109375 872.0987548828125 0.0001220703125 870.927734375 0.0001220703125 869.4837646484375 L 0.0001220703125 2.61492919921875 C 0.0001220703125 1.1707763671875 1.2816162109375 -6.103515625e-05 2.8626708984375 -6.103515625e-05 Z" stroke="none" fill="#707070"/>
  </g>
</svg>
