<svg xmlns="http://www.w3.org/2000/svg" width="495.6" height="410.388" viewBox="0 0 495.6 410.388">
  <g id="Path_8" data-name="Path 8" transform="translate(35)" fill="#fff">
    <path d="M 361.4800109863281 409.8874816894531 L 14.56001853942871 409.8874816894531 C 7.935830593109131 409.8874816894531 1.510080814361572 408.6095275878906 -4.538669109344482 406.0891723632813 C -10.38085651397705 403.6548461914063 -15.62760639190674 400.169921875 -20.1332950592041 395.7311706542969 C -24.63848114013672 391.29296875 -28.17541885375977 386.1250305175781 -30.6458568572998 380.3709716796875 C -33.19814300537109 374.4264831542969 -34.4947509765625 368.1120300292969 -34.49996566772461 361.60302734375 L 15.05383110046387 48.90178680419922 L 15.06001853942871 48.86291122436523 L 15.06001853942871 48.82353973388672 C 15.06001853942871 42.30060195922852 16.3567066192627 35.97297668457031 18.91414260864258 30.01647567749023 C 21.38458061218262 24.26241302490234 24.92151832580566 19.09447479248047 29.42670631408691 14.65628814697266 C 33.93239212036133 10.21760082244873 39.17914199829102 6.732663154602051 45.02133178710938 4.298350811004639 C 51.0700798034668 1.777975559234619 57.49583053588867 0.5000380873680115 64.12001800537109 0.5000380873680115 L 411.0400085449219 0.5000380873680115 C 417.6642150878906 0.5000380873680115 424.0899658203125 1.777975559234619 430.1387023925781 4.298350811004639 C 435.9808959960938 6.732663154602051 441.2276306152344 10.21760082244873 445.7333374023438 14.65628814697266 C 450.238525390625 19.09447479248047 453.7754516601563 24.26241302490234 456.2458801269531 30.01647567749023 C 458.7981872558594 35.96097946166992 460.0947875976563 42.27542114257813 460.1000061035156 48.7844352722168 L 410.5462036132813 361.4856567382813 L 410.5400085449219 361.5245361328125 L 410.5400085449219 361.5639038085938 C 410.5400085449219 368.0868530273438 409.2433166503906 374.4144897460938 406.6858825683594 380.3709716796875 C 404.2154541015625 386.1250305175781 400.6785278320313 391.29296875 396.17333984375 395.7311706542969 C 391.6676330566406 400.169921875 386.4208984375 403.6548461914063 380.5787048339844 406.0891723632813 C 374.5299682617188 408.6095275878906 368.1042175292969 409.8874816894531 361.4800109863281 409.8874816894531 Z" stroke="none"/>
    <path d="M 64.12002563476563 0.999969482421875 C 57.5621337890625 0.999969482421875 51.20114135742188 2.264984130859375 45.21365356445313 4.759857177734375 C 39.430908203125 7.169403076171875 34.23745727539063 10.61892700195313 29.777587890625 15.01248168945313 C 25.31881713867188 19.40496826171875 21.81838989257813 24.5194091796875 19.37356567382813 30.21371459960938 C 16.84307861328125 36.10760498046875 15.56002807617188 42.36883544921875 15.56002807617188 48.82354736328125 L 15.56002807617188 48.90228271484375 L 15.54769897460938 48.98004150390625 L -33.99990844726563 361.6423034667969 C -33.9896240234375 368.0694580078125 -32.70672607421875 374.3035888671875 -30.18643188476563 380.1737365722656 C -27.74160766601563 385.8679809570313 -24.24118041992188 390.982421875 -19.78240966796875 395.3749694824219 C -15.32260131835938 399.7685241699219 -10.12918090820313 403.2179870605469 -4.346343994140625 405.6275329589844 C 1.641143798828125 408.1224060058594 8.00213623046875 409.3874206542969 14.56002807617188 409.3874206542969 L 361.4800109863281 409.3874206542969 C 368.0379028320313 409.3874206542969 374.3988952636719 408.1224060058594 380.3863830566406 405.6275329589844 C 386.169189453125 403.2179870605469 391.3626403808594 399.7685241699219 395.8224487304688 395.3749694824219 C 400.2812194824219 390.982421875 403.7816467285156 385.8679809570313 406.2264404296875 380.1737365722656 C 408.7569580078125 374.2798461914063 410.0400085449219 368.0186157226563 410.0400085449219 361.5639038085938 L 410.0400085449219 361.4851684570313 L 410.0523376464844 361.4074096679688 L 459.5999450683594 48.74514770507813 C 459.5896606445313 42.31802368164063 458.3067626953125 36.0838623046875 455.7864685058594 30.21371459960938 C 453.3416442871094 24.5194091796875 449.8412170410156 19.40496826171875 445.3824462890625 15.01248168945313 C 440.9225769042969 10.61892700195313 435.7291564941406 7.169403076171875 429.9463806152344 4.759857177734375 C 423.9588928222656 2.264984130859375 417.597900390625 0.999969482421875 411.0400085449219 0.999969482421875 L 64.12002563476563 0.999969482421875 M 64.12002563476563 -3.0517578125e-05 L 411.0400085449219 -3.0517578125e-05 C 438.4112548828125 -3.0517578125e-05 460.6000061035156 21.85903930664063 460.6000061035156 48.82354736328125 L 411.0400085449219 361.5639038085938 C 411.0400085449219 388.5284118652344 388.8512573242188 410.3874206542969 361.4800109863281 410.3874206542969 L 14.56002807617188 410.3874206542969 C -12.81121826171875 410.3874206542969 -34.99996948242188 388.5284118652344 -34.99996948242188 361.5639038085938 L 14.56002807617188 48.82354736328125 C 14.56002807617188 21.85903930664063 36.748779296875 -3.0517578125e-05 64.12002563476563 -3.0517578125e-05 Z" stroke="none" fill="#818181"/>
  </g>
</svg>
