<svg xmlns="http://www.w3.org/2000/svg" xmlns:xlink="http://www.w3.org/1999/xlink" width="1661.261" height="1310.284" viewBox="0 0 1661.261 1310.284">
  <defs>
    <filter id="Path_2" x="0" y="0" width="1661.261" height="1310.284" filterUnits="userSpaceOnUse">
      <feOffset dx="12" dy="30" input="SourceAlpha"/>
      <feGaussianBlur stdDeviation="15" result="blur"/>
      <feFlood flood-color="#2c2828" flood-opacity="0.478"/>
      <feComposite operator="in" in2="blur"/>
      <feComposite in="SourceGraphic"/>
    </filter>
  </defs>
  <g transform="matrix(1, 0, 0, 1, 0, 0)" filter="url(#Path_2)">
    <g id="Path_2-2" data-name="Path 2" transform="translate(102.19 15)" fill="#fff">
      <path d="M131.191,0H1409.842c50.935,0,92.226,44.894,92.226,100.274L1327.432,1120.01c0,55.38-41.291,100.274-92.225,100.274H23.032c-50.935,0-92.225-44.894-92.225-100.274L4.52,425.036,38.966,100.274C38.966,44.894,80.256,0,131.191,0Z" stroke="none"/>
      <path d="M 131.1910400390625 1 C 125.006591796875 1 118.826171875 1.677490234375 112.8216552734375 3.013427734375 C 106.96923828125 4.3154296875 101.212158203125 6.2584228515625 95.7105712890625 8.7886962890625 C 90.3070068359375 11.2734375 85.094970703125 14.3494873046875 80.218994140625 17.9312744140625 C 75.387451171875 21.480224609375 70.8436279296875 25.5562744140625 66.7137451171875 30.04638671875 C 62.582763671875 34.5380859375 58.83203125 39.4808349609375 55.5655517578125 44.7376708984375 C 52.2672119140625 50.0458984375 49.4342041015625 55.7210693359375 47.1451416015625 61.605224609375 C 44.813232421875 67.5994873046875 43.0223388671875 73.8724365234375 41.822021484375 80.250244140625 C 40.5902099609375 86.79541015625 39.965576171875 93.532470703125 39.965576171875 100.2740478515625 L 39.965576171875 100.326904296875 L 39.9599609375 100.37939453125 L 5.5140380859375 425.1416625976563 L -68.1932373046875 1120.061889648438 C -68.18994140625 1126.7861328125 -67.5654296875 1133.5048828125 -66.3367919921875 1140.033203125 C -65.1363525390625 1146.410888671875 -63.3455810546875 1152.683837890625 -61.0135498046875 1158.678100585938 C -58.724609375 1164.5625 -55.8916015625 1170.237426757813 -52.59326171875 1175.5458984375 C -49.3267822265625 1180.802490234375 -45.5760498046875 1185.745483398438 -41.4449462890625 1190.237060546875 C -37.315185546875 1194.727294921875 -32.7713623046875 1198.803466796875 -27.9398193359375 1202.352416992188 C -23.0638427734375 1205.93408203125 -17.8515625 1209.010009765625 -12.4482421875 1211.494995117188 C -6.9466552734375 1214.025024414063 -1.1895751953125 1215.96826171875 4.6629638671875 1217.270263671875 C 10.6676025390625 1218.606201171875 16.8480224609375 1219.28369140625 23.0323486328125 1219.28369140625 L 1235.206787109375 1219.28369140625 C 1241.391235351563 1219.28369140625 1247.571533203125 1218.606201171875 1253.576171875 1217.270263671875 C 1259.428588867188 1215.96826171875 1265.185546875 1214.025024414063 1270.687255859375 1211.494995117188 C 1276.0908203125 1209.010009765625 1281.302734375 1205.93408203125 1286.178833007813 1202.352416992188 C 1291.010375976563 1198.803466796875 1295.55419921875 1194.727294921875 1299.683959960938 1190.237060546875 C 1303.81494140625 1185.745483398438 1307.565795898438 1180.802490234375 1310.832153320313 1175.5458984375 C 1314.130615234375 1170.237426757813 1316.963623046875 1164.5625 1319.252563476563 1158.678100585938 C 1321.584594726563 1152.683837890625 1323.375366210938 1146.410888671875 1324.575805664063 1140.033203125 C 1325.8076171875 1133.488037109375 1326.432250976563 1126.751098632813 1326.432250976563 1120.009399414063 L 1326.432250976563 1119.924438476563 L 1326.446533203125 1119.840698242188 L 1501.0673828125 100.1895751953125 C 1501.062255859375 93.4759521484375 1500.437744140625 86.768310546875 1499.2109375 80.250244140625 C 1498.010620117188 73.8724365234375 1496.219848632813 67.5994873046875 1493.887939453125 61.605224609375 C 1491.598754882813 55.7210693359375 1488.765747070313 50.0458984375 1485.467407226563 44.7376708984375 C 1482.201171875 39.4808349609375 1478.450439453125 34.5380859375 1474.319213867188 30.04638671875 C 1470.189453125 25.5562744140625 1465.645629882813 21.480224609375 1460.814208984375 17.9312744140625 C 1455.93798828125 14.3494873046875 1450.725952148438 11.2734375 1445.322387695313 8.7886962890625 C 1439.82080078125 6.2584228515625 1434.063842773438 4.3154296875 1428.21142578125 3.013427734375 C 1422.206787109375 1.677490234375 1416.026245117188 1 1409.841796875 1 L 131.1910400390625 1 M 131.1910400390625 0 L 1409.841796875 0 C 1460.77685546875 0 1502.0673828125 44.89404296875 1502.0673828125 100.2740478515625 L 1327.432250976563 1120.009399414063 C 1327.432250976563 1175.389282226563 1286.141357421875 1220.28369140625 1235.206787109375 1220.28369140625 L 23.0323486328125 1220.28369140625 C -27.9024658203125 1220.28369140625 -69.1932373046875 1175.389282226563 -69.1932373046875 1120.009399414063 L 4.5196533203125 425.0362548828125 L 38.965576171875 100.2740478515625 C 38.965576171875 44.89404296875 80.25634765625 0 131.1910400390625 0 Z" stroke="none" fill="rgba(113,113,113,0.52)"/>
    </g>
  </g>
</svg>
